<?xml version="1.0" encoding="UTF-8" standalone="no"?>
<!DOCTYPE svg PUBLIC "-//W3C//DTD SVG 1.1//EN"
 "http://www.w3.org/Graphics/SVG/1.1/DTD/svg11.dtd">
<!-- Generated by graphviz version 2.43.0 (0)
 -->
<!-- Title: G Pages: 1 -->
<svg width="1049pt" height="380pt"
 viewBox="0.00 0.00 1048.80 379.80" xmlns="http://www.w3.org/2000/svg" xmlns:xlink="http://www.w3.org/1999/xlink">
<g id="graph0" class="graph" transform="scale(1 1) rotate(0) translate(14.4 365.4)">
<title>G</title>
<polygon fill="white" stroke="transparent" points="-14.4,14.4 -14.4,-365.4 1034.4,-365.4 1034.4,14.4 -14.4,14.4"/>
<text text-anchor="middle" x="510" y="-337.4" font-family="Arial" font-size="12.00">Service Courier Platform — package dependencies</text>
<g id="clust1" class="cluster">
<title>cluster_core</title>
<path fill="none" stroke="#e2e8f0" d="M293,-8C293,-8 839,-8 839,-8 845,-8 851,-14 851,-20 851,-20 851,-69 851,-69 851,-75 845,-81 839,-81 839,-81 293,-81 293,-81 287,-81 281,-75 281,-69 281,-69 281,-20 281,-20 281,-14 287,-8 293,-8"/>
<text text-anchor="middle" x="566" y="-67.4" font-family="Arial" font-size="12.00">Core / Shared</text>
</g>
<g id="clust2" class="cluster">
<title>cluster_services</title>
<path fill="none" stroke="#dbeafe" d="M303,-89C303,-89 577,-89 577,-89 583,-89 589,-95 589,-101 589,-101 589,-150 589,-150 589,-156 583,-162 577,-162 577,-162 303,-162 303,-162 297,-162 291,-156 291,-150 291,-150 291,-101 291,-101 291,-95 297,-89 303,-89"/>
<text text-anchor="middle" x="440" y="-148.4" font-family="Arial" font-size="12.00">Services / Use cases</text>
</g>
<g id="clust3" class="cluster">
<title>cluster_inbound</title>
<path fill="none" stroke="#dcfce7" d="M20,-170C20,-170 333,-170 333,-170 339,-170 345,-176 345,-182 345,-182 345,-310 345,-310 345,-316 339,-322 333,-322 333,-322 20,-322 20,-322 14,-322 8,-316 8,-310 8,-310 8,-182 8,-182 8,-176 14,-170 20,-170"/>
<text text-anchor="middle" x="176.5" y="-308.4" font-family="Arial" font-size="12.00">Inbound adapters</text>
</g>
<g id="clust4" class="cluster">
<title>cluster_outbound</title>
<path fill="none" stroke="#fce7f3" d="M849,-249C849,-249 1000,-249 1000,-249 1006,-249 1012,-255 1012,-261 1012,-261 1012,-310 1012,-310 1012,-316 1006,-322 1000,-322 1000,-322 849,-322 849,-322 843,-322 837,-316 837,-310 837,-310 837,-261 837,-261 837,-255 843,-249 849,-249"/>
<text text-anchor="middle" x="924.5" y="-308.4" font-family="Arial" font-size="12.00">Outbound adapters</text>
</g>
<g id="clust5" class="cluster">
<title>cluster_app</title>
<path fill="none" stroke="#fef3c7" d="M412,-249C412,-249 495,-249 495,-249 501,-249 507,-255 507,-261 507,-261 507,-310 507,-310 507,-316 501,-322 495,-322 495,-322 412,-322 412,-322 406,-322 400,-316 400,-310 400,-310 400,-261 400,-261 400,-255 406,-249 412,-249"/>
<text text-anchor="middle" x="453.5" y="-308.4" font-family="Arial" font-size="12.00">Composition root</text>
</g>
<!-- apperr -->
<g id="node1" class="node">
<title>apperr</title>
<path fill="#f8fafc" stroke="#cbd5e1" d="M410,-52C410,-52 380,-52 380,-52 374,-52 368,-46 368,-40 368,-40 368,-28 368,-28 368,-22 374,-16 380,-16 380,-16 410,-16 410,-16 416,-16 422,-22 422,-28 422,-28 422,-40 422,-40 422,-46 416,-52 410,-52"/>
<text text-anchor="middle" x="395" y="-31.5" font-family="Arial" font-size="10.00">apperr</text>
</g>
<!-- domain -->
<g id="node2" class="node">
<title>domain</title>
<path fill="#f8fafc" stroke="#cbd5e1" d="M752,-52C752,-52 722,-52 722,-52 716,-52 710,-46 710,-40 710,-40 710,-28 710,-28 710,-22 716,-16 722,-16 722,-16 752,-16 752,-16 758,-16 764,-22 764,-28 764,-28 764,-40 764,-40 764,-46 758,-52 752,-52"/>
<text text-anchor="middle" x="737" y="-31.5" font-family="Arial" font-size="10.00">domain</text>
</g>
<!-- logx -->
<g id="node3" class="node">
<title>logx</title>
<path fill="#f8fafc" stroke="#cbd5e1" d="M331,-52C331,-52 301,-52 301,-52 295,-52 289,-46 289,-40 289,-40 289,-28 289,-28 289,-22 295,-16 301,-16 301,-16 331,-16 331,-16 337,-16 343,-22 343,-28 343,-28 343,-40 343,-40 343,-46 337,-52 331,-52"/>
<text text-anchor="middle" x="316" y="-31.5" font-family="Arial" font-size="10.00">logx</text>
</g>
<!-- metrics -->
<g id="node4" class="node">
<title>metrics</title>
<path fill="#f8fafc" stroke="#cbd5e1" d="M673,-52C673,-52 643,-52 643,-52 637,-52 631,-46 631,-40 631,-40 631,-28 631,-28 631,-22 637,-16 643,-16 643,-16 673,-16 673,-16 679,-16 685,-22 685,-28 685,-28 685,-40 685,-40 685,-46 679,-52 673,-52"/>
<text text-anchor="middle" x="658" y="-31.5" font-family="Arial" font-size="10.00">metrics</text>
</g>
<!-- config -->
<g id="node5" class="node">
<title>config</title>
<path fill="#f8fafc" stroke="#cbd5e1" d="M594,-52C594,-52 564,-52 564,-52 558,-52 552,-46 552,-40 552,-40 552,-28 552,-28 552,-22 558,-16 564,-16 564,-16 594,-16 594,-16 600,-16 606,-22 606,-28 606,-28 606,-40 606,-40 606,-46 600,-52 594,-52"/>
<text text-anchor="middle" x="579" y="-31.5" font-family="Arial" font-size="10.00">config</text>
</g>
<!-- proto -->
<g id="node6" class="node">
<title>proto</title>
<path fill="#f8fafc" stroke="#cbd5e1" d="M831,-52C831,-52 801,-52 801,-52 795,-52 789,-46 789,-40 789,-40 789,-28 789,-28 789,-22 795,-16 801,-16 801,-16 831,-16 831,-16 837,-16 843,-22 843,-28 843,-28 843,-40 843,-40 843,-46 837,-52 831,-52"/>
<text text-anchor="middle" x="816" y="-31.5" font-family="Arial" font-size="10.00">proto</text>
</g>
<!-- ports_tx -->
<g id="node7" class="node">
<title>ports_tx</title>
<path fill="#f8fafc" stroke="#cbd5e1" d="M514.5,-52C514.5,-52 459.5,-52 459.5,-52 453.5,-52 447.5,-46 447.5,-40 447.5,-40 447.5,-28 447.5,-28 447.5,-22 453.5,-16 459.5,-16 459.5,-16 514.5,-16 514.5,-16 520.5,-16 526.5,-22 526.5,-28 526.5,-28 526.5,-40 526.5,-40 526.5,-46 520.5,-52 514.5,-52"/>
<text text-anchor="middle" x="487" y="-31.5" font-family="Arial" font-size="10.00">ports/deliverytx</text>
</g>
<!-- ports_tx&#45;&gt;domain -->
<g id="edge5" class="edge">
<title>ports_tx&#45;&gt;domain</title>
<path fill="none" stroke="#64748b" d="M522.6,-52.21C522.6,-57.55 522.6,-62 522.6,-62 522.6,-62 717.71,-62 717.71,-62 717.71,-62 717.71,-59.21 717.71,-59.21"/>
<polygon fill="#64748b" stroke="#64748b" points="720.16,-59.21 717.71,-52.21 715.26,-59.21 720.16,-59.21"/>
</g>
<!-- svc_courier -->
<g id="node8" class="node">
<title>svc_courier</title>
<path fill="#eff6ff" stroke="#cbd5e1" d="M470,-133C470,-133 418,-133 418,-133 412,-133 406,-127 406,-121 406,-121 406,-109 406,-109 406,-103 412,-97 418,-97 418,-97 470,-97 470,-97 476,-97 482,-103 482,-109 482,-109 482,-121 482,-121 482,-127 476,-133 470,-133"/>
<text text-anchor="middle" x="444" y="-112.5" font-family="Arial" font-size="10.00">service/courier</text>
</g>
<!-- svc_courier&#45;&gt;apperr -->
<g id="edge3" class="edge">
<title>svc_courier&#45;&gt;apperr</title>
<path fill="none" stroke="#64748b" d="M410,-96.62C410,-96.62 410,-59.03 410,-59.03"/>
<polygon fill="#64748b" stroke="#64748b" points="412.45,-59.03 410,-52.03 407.55,-59.03 412.45,-59.03"/>
</g>
<!-- svc_courier&#45;&gt;domain -->
<g id="edge4" class="edge">
<title>svc_courier&#45;&gt;domain</title>
<path fill="none" stroke="#64748b" d="M470.5,-96.79C470.5,-91.45 470.5,-87 470.5,-87 470.5,-87 733.14,-87 733.14,-87 733.14,-87 733.14,-59.24 733.14,-59.24"/>
<polygon fill="#64748b" stroke="#64748b" points="735.59,-59.24 733.14,-52.24 730.69,-59.24 735.59,-59.24"/>
</g>
<!-- svc_delivery -->
<g id="node9" class="node">
<title>svc_delivery</title>
<path fill="#eff6ff" stroke="#cbd5e1" d="M368.5,-133C368.5,-133 311.5,-133 311.5,-133 305.5,-133 299.5,-127 299.5,-121 299.5,-121 299.5,-109 299.5,-109 299.5,-103 305.5,-97 311.5,-97 311.5,-97 368.5,-97 368.5,-97 374.5,-97 380.5,-103 380.5,-109 380.5,-109 380.5,-121 380.5,-121 380.5,-127 374.5,-133 368.5,-133"/>
<text text-anchor="middle" x="340" y="-112.5" font-family="Arial" font-size="10.00">service/delivery</text>
</g>
<!-- svc_delivery&#45;&gt;apperr -->
<g id="edge6" class="edge">
<title>svc_delivery&#45;&gt;apperr</title>
<path fill="none" stroke="#64748b" d="M371.12,-96.62C371.12,-96.62 371.12,-59.03 371.12,-59.03"/>
<polygon fill="#64748b" stroke="#64748b" points="373.58,-59.03 371.12,-52.03 368.68,-59.03 373.58,-59.03"/>
</g>
<!-- svc_delivery&#45;&gt;domain -->
<g id="edge7" class="edge">
<title>svc_delivery&#45;&gt;domain</title>
<path fill="none" stroke="#64748b" d="M377.38,-96.96C377.38,-89.25 377.38,-82 377.38,-82 377.38,-82 725.43,-82 725.43,-82 725.43,-82 725.43,-59.15 725.43,-59.15"/>
<polygon fill="#64748b" stroke="#64748b" points="727.88,-59.15 725.43,-52.15 722.98,-59.15 727.88,-59.15"/>
</g>
<!-- svc_delivery&#45;&gt;logx -->
<g id="edge8" class="edge">
<title>svc_delivery&#45;&gt;logx</title>
<path fill="none" stroke="#64748b" d="M314,-96.62C314,-96.62 314,-59.03 314,-59.03"/>
<polygon fill="#64748b" stroke="#64748b" points="316.45,-59.03 314,-52.03 311.55,-59.03 316.45,-59.03"/>
</g>
<!-- svc_delivery&#45;&gt;ports_tx -->
<g id="edge9" class="edge">
<title>svc_delivery&#45;&gt;ports_tx</title>
<path fill="none" stroke="#64748b" d="M374.25,-96.97C374.25,-79.94 374.25,-57 374.25,-57 374.25,-57 459,-57 459,-57 459,-57 459,-56.51 459,-56.51"/>
<polygon fill="#64748b" stroke="#64748b" points="461.45,-59.12 459,-52.12 456.55,-59.12 461.45,-59.12"/>
</g>
<!-- svc_orders -->
<g id="node10" class="node">
<title>svc_orders</title>
<path fill="#eff6ff" stroke="#cbd5e1" d="M569,-133C569,-133 519,-133 519,-133 513,-133 507,-127 507,-121 507,-121 507,-109 507,-109 507,-103 513,-97 519,-97 519,-97 569,-97 569,-97 575,-97 581,-103 581,-109 581,-109 581,-121 581,-121 581,-127 575,-133 569,-133"/>
<text text-anchor="middle" x="544" y="-112.5" font-family="Arial" font-size="10.00">service/orders</text>
</g>
<!-- svc_orders&#45;&gt;apperr -->
<g id="edge23" class="edge">
<title>svc_orders&#45;&gt;apperr</title>
<path fill="none" stroke="#64748b" d="M510.9,-96.89C510.9,-87.1 510.9,-77 510.9,-77 510.9,-77 414,-77 414,-77 414,-77 414,-59.49 414,-59.49"/>
<polygon fill="#64748b" stroke="#64748b" points="416.45,-59.49 414,-52.49 411.55,-59.49 416.45,-59.49"/>
</g>
<!-- svc_orders&#45;&gt;domain -->
<g id="edge24" class="edge">
<title>svc_orders&#45;&gt;domain</title>
<path fill="none" stroke="#64748b" d="M581.03,-115C638.05,-115 740.86,-115 740.86,-115 740.86,-115 740.86,-59.38 740.86,-59.38"/>
<polygon fill="#64748b" stroke="#64748b" points="743.31,-59.38 740.86,-52.38 738.41,-59.38 743.31,-59.38"/>
</g>
<!-- svc_orders&#45;&gt;ports_tx -->
<g id="edge25" class="edge">
<title>svc_orders&#45;&gt;ports_tx</title>
<path fill="none" stroke="#64748b" d="M514.8,-96.62C514.8,-96.62 514.8,-59.03 514.8,-59.03"/>
<polygon fill="#64748b" stroke="#64748b" points="517.25,-59.03 514.8,-52.03 512.35,-59.03 517.25,-59.03"/>
</g>
<!-- http_handlers -->
<g id="node11" class="node">
<title>http_handlers</title>
<path fill="#f0fdf4" stroke="#cbd5e1" d="M324.5,-214C324.5,-214 279.5,-214 279.5,-214 273.5,-214 267.5,-208 267.5,-202 267.5,-202 267.5,-190 267.5,-190 267.5,-184 273.5,-178 279.5,-178 279.5,-178 324.5,-178 324.5,-178 330.5,-178 336.5,-184 336.5,-190 336.5,-190 336.5,-202 336.5,-202 336.5,-208 330.5,-214 324.5,-214"/>
<text text-anchor="middle" x="302" y="-193.5" font-family="Arial" font-size="10.00">http/handlers</text>
</g>
<!-- http_handlers&#45;&gt;apperr -->
<g id="edge10" class="edge">
<title>http_handlers&#45;&gt;apperr</title>
<path fill="none" stroke="#64748b" d="M336.76,-185C362.55,-185 393.25,-185 393.25,-185 393.25,-185 393.25,-59.21 393.25,-59.21"/>
<polygon fill="#64748b" stroke="#64748b" points="395.7,-59.21 393.25,-52.21 390.8,-59.21 395.7,-59.21"/>
</g>
<!-- http_handlers&#45;&gt;domain -->
<g id="edge11" class="edge">
<title>http_handlers&#45;&gt;domain</title>
<path fill="none" stroke="#64748b" d="M336.67,-199C441.59,-199 748.57,-199 748.57,-199 748.57,-199 748.57,-59.29 748.57,-59.29"/>
<polygon fill="#64748b" stroke="#64748b" points="751.02,-59.29 748.57,-52.29 746.12,-59.29 751.02,-59.29"/>
</g>
<!-- http_handlers&#45;&gt;logx -->
<g id="edge12" class="edge">
<title>http_handlers&#45;&gt;logx</title>
<path fill="none" stroke="#64748b" d="M292.5,-177.73C292.5,-177.73 292.5,-59.45 292.5,-59.45"/>
<polygon fill="#64748b" stroke="#64748b" points="294.95,-59.45 292.5,-52.45 290.05,-59.45 294.95,-59.45"/>
</g>
<!-- http_handlers&#45;&gt;svc_courier -->
<g id="edge13" class="edge">
<title>http_handlers&#45;&gt;svc_courier</title>
<path fill="none" stroke="#64748b" d="M336.51,-192C370.07,-192 416,-192 416,-192 416,-192 416,-140.25 416,-140.25"/>
<polygon fill="#64748b" stroke="#64748b" points="418.45,-140.25 416,-133.25 413.55,-140.25 418.45,-140.25"/>
</g>
<!-- http_handlers&#45;&gt;svc_delivery -->
<g id="edge14" class="edge">
<title>http_handlers&#45;&gt;svc_delivery</title>
<path fill="none" stroke="#64748b" d="M318,-177.62C318,-177.62 318,-140.03 318,-140.03"/>
<polygon fill="#64748b" stroke="#64748b" points="320.45,-140.03 318,-133.03 315.55,-140.03 320.45,-140.03"/>
</g>
<!-- http_mw -->
<g id="node12" class="node">
<title>http_mw</title>
<path fill="#f0fdf4" stroke="#cbd5e1" d="M86,-214C86,-214 28,-214 28,-214 22,-214 16,-208 16,-202 16,-202 16,-190 16,-190 16,-184 22,-178 28,-178 28,-178 86,-178 86,-178 92,-178 98,-184 98,-190 98,-190 98,-202 98,-202 98,-208 92,-214 86,-214"/>
<text text-anchor="middle" x="57" y="-193.5" font-family="Arial" font-size="10.00">http/middleware</text>
</g>
<!-- http_mw&#45;&gt;logx -->
<g id="edge16" class="edge">
<title>http_mw&#45;&gt;logx</title>
<path fill="none" stroke="#64748b" d="M57,-177.7C57,-133.59 57,-25 57,-25 57,-25 281.77,-25 281.77,-25"/>
<polygon fill="#64748b" stroke="#64748b" points="281.77,-27.45 288.77,-25 281.77,-22.55 281.77,-27.45"/>
</g>
<!-- http_mw_rl -->
<g id="node13" class="node">
<title>http_mw_rl</title>
<path fill="#f0fdf4" stroke="#cbd5e1" d="M230.5,-214C230.5,-214 135.5,-214 135.5,-214 129.5,-214 123.5,-208 123.5,-202 123.5,-202 123.5,-190 123.5,-190 123.5,-184 129.5,-178 135.5,-178 135.5,-178 230.5,-178 230.5,-178 236.5,-178 242.5,-184 242.5,-190 242.5,-190 242.5,-202 242.5,-202 242.5,-208 236.5,-214 230.5,-214"/>
<text text-anchor="middle" x="183" y="-193.5" font-family="Arial" font-size="10.00">http/middleware/ratelimit</text>
</g>
<!-- http_mw_rl&#45;&gt;logx -->
<g id="edge15" class="edge">
<title>http_mw_rl&#45;&gt;logx</title>
<path fill="none" stroke="#64748b" d="M183,-177.73C183,-135.36 183,-34 183,-34 183,-34 281.76,-34 281.76,-34"/>
<polygon fill="#64748b" stroke="#64748b" points="281.76,-36.45 288.76,-34 281.76,-31.55 281.76,-36.45"/>
</g>
<!-- http_router -->
<g id="node14" class="node">
<title>http_router</title>
<path fill="#f0fdf4" stroke="#cbd5e1" d="M199.5,-293C199.5,-293 166.5,-293 166.5,-293 160.5,-293 154.5,-287 154.5,-281 154.5,-281 154.5,-269 154.5,-269 154.5,-263 160.5,-257 166.5,-257 166.5,-257 199.5,-257 199.5,-257 205.5,-257 211.5,-263 211.5,-269 211.5,-269 211.5,-281 211.5,-281 211.5,-287 205.5,-293 199.5,-293"/>
<text text-anchor="middle" x="183" y="-272.5" font-family="Arial" font-size="10.00">http/router</text>
</g>
<!-- http_router&#45;&gt;http_handlers -->
<g id="edge17" class="edge">
<title>http_router&#45;&gt;http_handlers</title>
<path fill="none" stroke="#64748b" d="M211.73,-275C230.2,-275 250.75,-275 250.75,-275 250.75,-275 250.75,-196 250.75,-196 250.75,-196 260.25,-196 260.25,-196"/>
<polygon fill="#64748b" stroke="#64748b" points="260.25,-198.45 267.25,-196 260.25,-193.55 260.25,-198.45"/>
</g>
<!-- http_router&#45;&gt;http_mw -->
<g id="edge18" class="edge">
<title>http_router&#45;&gt;http_mw</title>
<path fill="none" stroke="#64748b" d="M154.15,-275C136.97,-275 118.5,-275 118.5,-275 118.5,-275 118.5,-196 118.5,-196 118.5,-196 105.02,-196 105.02,-196"/>
<polygon fill="#64748b" stroke="#64748b" points="105.02,-193.55 98.02,-196 105.02,-198.45 105.02,-193.55"/>
</g>
<!-- http_router&#45;&gt;http_mw_rl -->
<g id="edge19" class="edge">
<title>http_router&#45;&gt;http_mw_rl</title>
<path fill="none" stroke="#64748b" d="M183,-256.68C183,-256.68 183,-221.22 183,-221.22"/>
<polygon fill="#64748b" stroke="#64748b" points="185.45,-221.22 183,-214.22 180.55,-221.22 185.45,-221.22"/>
</g>
<!-- http_pprof -->
<g id="node15" class="node">
<title>http_pprof</title>
<path fill="#f0fdf4" stroke="#cbd5e1" d="M101.5,-293C101.5,-293 44.5,-293 44.5,-293 38.5,-293 32.5,-287 32.5,-281 32.5,-281 32.5,-269 32.5,-269 32.5,-263 38.5,-257 44.5,-257 44.5,-257 101.5,-257 101.5,-257 107.5,-257 113.5,-263 113.5,-269 113.5,-269 113.5,-281 113.5,-281 113.5,-287 107.5,-293 101.5,-293"/>
<text text-anchor="middle" x="73" y="-272.5" font-family="Arial" font-size="10.00">http/pprofserver</text>
</g>
<!-- kafka_transport -->
<g id="node16" class="node">
<title>kafka_transport</title>
<path fill="#f0fdf4" stroke="#cbd5e1" d="M325,-293C325,-293 271,-293 271,-293 265,-293 259,-287 259,-281 259,-281 259,-269 259,-269 259,-263 265,-257 271,-257 271,-257 325,-257 325,-257 331,-257 337,-263 337,-269 337,-269 337,-281 337,-281 337,-287 331,-293 325,-293"/>
<text text-anchor="middle" x="298" y="-272.5" font-family="Arial" font-size="10.00">transport/kafka</text>
</g>
<!-- kafka_transport&#45;&gt;logx -->
<g id="edge26" class="edge">
<title>kafka_transport&#45;&gt;logx</title>
<path fill="none" stroke="#64748b" d="M263.25,-256.8C263.25,-202.1 263.25,-43 263.25,-43 263.25,-43 281.7,-43 281.7,-43"/>
<polygon fill="#64748b" stroke="#64748b" points="281.7,-45.45 288.7,-43 281.7,-40.55 281.7,-45.45"/>
</g>
<!-- kafka_transport&#45;&gt;svc_orders -->
<g id="edge27" class="edge">
<title>kafka_transport&#45;&gt;svc_orders</title>
<path fill="none" stroke="#64748b" d="M302,-256.85C302,-244.73 302,-231 302,-231 302,-231 531.67,-231 531.67,-231 531.67,-231 531.67,-140.12 531.67,-140.12"/>
<polygon fill="#64748b" stroke="#64748b" points="534.12,-140.12 531.67,-133.12 529.22,-140.13 534.12,-140.12"/>
</g>
<!-- repo -->
<g id="node17" class="node">
<title>repo</title>
<path fill="#fdf2f8" stroke="#cbd5e1" d="M991.5,-293C991.5,-293 960.5,-293 960.5,-293 954.5,-293 948.5,-287 948.5,-281 948.5,-281 948.5,-269 948.5,-269 948.5,-263 954.5,-257 960.5,-257 960.5,-257 991.5,-257 991.5,-257 997.5,-257 1003.5,-263 1003.5,-269 1003.5,-269 1003.5,-281 1003.5,-281 1003.5,-287 997.5,-293 991.5,-293"/>
<text text-anchor="middle" x="976" y="-272.5" font-family="Arial" font-size="10.00">repository</text>
</g>
<!-- repo&#45;&gt;apperr -->
<g id="edge20" class="edge">
<title>repo&#45;&gt;apperr</title>
<path fill="none" stroke="#64748b" d="M976,-256.99C976,-207.3 976,-72 976,-72 976,-72 418,-72 418,-72 418,-72 418,-59.11 418,-59.11"/>
<polygon fill="#64748b" stroke="#64748b" points="420.45,-59.11 418,-52.11 415.55,-59.11 420.45,-59.11"/>
</g>
<!-- repo&#45;&gt;domain -->
<g id="edge21" class="edge">
<title>repo&#45;&gt;domain</title>
<path fill="none" stroke="#64748b" d="M962.25,-256.58C962.25,-247.72 962.25,-239 962.25,-239 962.25,-239 756.29,-239 756.29,-239 756.29,-239 756.29,-59.19 756.29,-59.19"/>
<polygon fill="#64748b" stroke="#64748b" points="758.74,-59.19 756.29,-52.19 753.84,-59.19 758.74,-59.19"/>
</g>
<!-- repo&#45;&gt;ports_tx -->
<g id="edge22" class="edge">
<title>repo&#45;&gt;ports_tx</title>
<path fill="none" stroke="#64748b" d="M989.75,-256.91C989.75,-206.3 989.75,-67 989.75,-67 989.75,-67 518.7,-67 518.7,-67 518.7,-67 518.7,-59.04 518.7,-59.04"/>
<polygon fill="#64748b" stroke="#64748b" points="521.15,-59.04 518.7,-52.04 516.25,-59.04 521.15,-59.04"/>
</g>
<!-- gw_orders -->
<g id="node18" class="node">
<title>gw_orders</title>
<path fill="#fdf2f8" stroke="#cbd5e1" d="M911.5,-293C911.5,-293 856.5,-293 856.5,-293 850.5,-293 844.5,-287 844.5,-281 844.5,-281 844.5,-269 844.5,-269 844.5,-263 850.5,-257 856.5,-257 856.5,-257 911.5,-257 911.5,-257 917.5,-257 923.5,-263 923.5,-269 923.5,-269 923.5,-281 923.5,-281 923.5,-287 917.5,-293 911.5,-293"/>
<text text-anchor="middle" x="884" y="-272.5" font-family="Arial" font-size="10.00">gateway/orders</text>
</g>
<!-- gw_orders&#45;&gt;logx -->
<g id="edge1" class="edge">
<title>gw_orders&#45;&gt;logx</title>
<path fill="none" stroke="#64748b" d="M884,-256.78C884,-210.5 884,-92 884,-92 884,-92 328.5,-92 328.5,-92 328.5,-92 328.5,-59.03 328.5,-59.03"/>
<polygon fill="#64748b" stroke="#64748b" points="330.95,-59.03 328.5,-52.03 326.05,-59.03 330.95,-59.03"/>
</g>
<!-- gw_orders&#45;&gt;proto -->
<g id="edge2" class="edge">
<title>gw_orders&#45;&gt;proto</title>
<path fill="none" stroke="#64748b" d="M844.32,-267C833.65,-267 825,-267 825,-267 825,-267 825,-59.28 825,-59.28"/>
<polygon fill="#64748b" stroke="#64748b" points="827.45,-59.28 825,-52.28 822.55,-59.28 827.45,-59.28"/>
</g>
<!-- app -->
<g id="node19" class="node">
<title>app</title>
<path fill="#fffbeb" stroke="#cbd5e1" d="M468,-293C468,-293 438,-293 438,-293 432,-293 426,-287 426,-281 426,-281 426,-269 426,-269 426,-263 432,-257 438,-257 438,-257 468,-257 468,-257 474,-257 480,-263 480,-269 480,-269 480,-281 480,-281 480,-287 474,-293 468,-293"/>
<text text-anchor="middle" x="453" y="-272.5" font-family="Arial" font-size="10.00">app</text>
</g>
<!-- app&#45;&gt;logx -->
<g id="edge34" class="edge">
<title>app&#45;&gt;logx</title>
<path fill="none" stroke="#94a3b8" stroke-dasharray="5,2" d="M462,-256.77C462,-223.2 462,-155 462,-155 462,-155 296,-155 296,-155 296,-155 296,-59.11 296,-59.11"/>
<polygon fill="#94a3b8" stroke="#94a3b8" points="298.45,-59.11 296,-52.11 293.55,-59.11 298.45,-59.11"/>
</g>
<!-- app&#45;&gt;metrics -->
<g id="edge35" class="edge">
<title>app&#45;&gt;metrics</title>
<path fill="none" stroke="#94a3b8" stroke-dasharray="5,2" d="M480.22,-277C535.99,-277 658,-277 658,-277 658,-277 658,-59.26 658,-59.26"/>
<polygon fill="#94a3b8" stroke="#94a3b8" points="660.45,-59.26 658,-52.26 655.55,-59.26 660.45,-59.26"/>
</g>
<!-- app&#45;&gt;config -->
<g id="edge28" class="edge">
<title>app&#45;&gt;config</title>
<path fill="none" stroke="#94a3b8" stroke-dasharray="5,2" d="M480.09,-272C520.92,-272 593.5,-272 593.5,-272 593.5,-272 593.5,-59.28 593.5,-59.28"/>
<polygon fill="#94a3b8" stroke="#94a3b8" points="595.95,-59.28 593.5,-52.28 591.05,-59.28 595.95,-59.28"/>
</g>
<!-- app&#45;&gt;proto -->
<g id="edge36" class="edge">
<title>app&#45;&gt;proto</title>
<path fill="none" stroke="#94a3b8" stroke-dasharray="5,2" d="M480.19,-282C563.08,-282 807,-282 807,-282 807,-282 807,-59.24 807,-59.24"/>
<polygon fill="#94a3b8" stroke="#94a3b8" points="809.45,-59.24 807,-52.24 804.55,-59.24 809.45,-59.24"/>
</g>
<!-- app&#45;&gt;svc_courier -->
<g id="edge38" class="edge">
<title>app&#45;&gt;svc_courier</title>
<path fill="none" stroke="#94a3b8" stroke-dasharray="5,2" d="M471,-256.96C471,-256.96 471,-140.22 471,-140.22"/>
<polygon fill="#94a3b8" stroke="#94a3b8" points="473.45,-140.22 471,-133.22 468.55,-140.22 473.45,-140.22"/>
</g>
<!-- app&#45;&gt;svc_delivery -->
<g id="edge39" class="edge">
<title>app&#45;&gt;svc_delivery</title>
<path fill="none" stroke="#94a3b8" stroke-dasharray="5,2" d="M425.99,-269C398.14,-269 358.75,-269 358.75,-269 358.75,-269 358.75,-140.27 358.75,-140.27"/>
<polygon fill="#94a3b8" stroke="#94a3b8" points="361.2,-140.27 358.75,-133.27 356.3,-140.27 361.2,-140.27"/>
</g>
<!-- app&#45;&gt;svc_orders -->
<g id="edge40" class="edge">
<title>app&#45;&gt;svc_orders</title>
<path fill="none" stroke="#94a3b8" stroke-dasharray="5,2" d="M480.15,-262C510.77,-262 556.33,-262 556.33,-262 556.33,-262 556.33,-140.03 556.33,-140.03"/>
<polygon fill="#94a3b8" stroke="#94a3b8" points="558.78,-140.03 556.33,-133.03 553.88,-140.03 558.78,-140.03"/>
</g>
<!-- app&#45;&gt;http_handlers -->
<g id="edge30" class="edge">
<title>app&#45;&gt;http_handlers</title>
<path fill="none" stroke="#94a3b8" stroke-dasharray="5,2" d="M453,-256.87C453,-236.43 453,-206 453,-206 453,-206 343.64,-206 343.64,-206"/>
<polygon fill="#94a3b8" stroke="#94a3b8" points="343.64,-203.55 336.64,-206 343.64,-208.45 343.64,-203.55"/>
</g>
<!-- app&#45;&gt;http_mw_rl -->
<g id="edge31" class="edge">
<title>app&#45;&gt;http_mw_rl</title>
<path fill="none" stroke="#94a3b8" stroke-dasharray="5,2" d="M444,-256.76C444,-241.43 444,-222 444,-222 444,-222 227,-222 227,-222 227,-222 227,-221.06 227,-221.06"/>
<polygon fill="#94a3b8" stroke="#94a3b8" points="229.45,-221.06 227,-214.06 224.55,-221.06 229.45,-221.06"/>
</g>
<!-- app&#45;&gt;http_router -->
<g id="edge33" class="edge">
<title>app&#45;&gt;http_router</title>
<path fill="none" stroke="#94a3b8" stroke-dasharray="5,2" d="M444,-293.14C444,-299.46 444,-305 444,-305 444,-305 183,-305 183,-305 183,-305 183,-300.14 183,-300.14"/>
<polygon fill="#94a3b8" stroke="#94a3b8" points="185.45,-300.14 183,-293.14 180.55,-300.14 185.45,-300.14"/>
</g>
<!-- app&#45;&gt;http_pprof -->
<g id="edge32" class="edge">
<title>app&#45;&gt;http_pprof</title>
<path fill="none" stroke="#94a3b8" stroke-dasharray="5,2" d="M435,-256.84C435,-251.96 435,-248 435,-248 435,-248 105.75,-248 105.75,-248 105.75,-248 105.75,-249.84 105.75,-249.84"/>
<polygon fill="#94a3b8" stroke="#94a3b8" points="103.3,-249.84 105.75,-256.84 108.2,-249.84 103.3,-249.84"/>
</g>
<!-- app&#45;&gt;kafka_transport -->
<g id="edge41" class="edge">
<title>app&#45;&gt;kafka_transport</title>
<path fill="none" stroke="#94a3b8" stroke-dasharray="5,2" d="M425.65,-281C425.65,-281 344,-281 344,-281"/>
<polygon fill="#94a3b8" stroke="#94a3b8" points="344,-278.55 337,-281 344,-283.45 344,-278.55"/>
</g>
<!-- app&#45;&gt;repo -->
<g id="edge37" class="edge">
<title>app&#45;&gt;repo</title>
<path fill="none" stroke="#94a3b8" stroke-dasharray="5,2" d="M462,-293.06C462,-304.44 462,-317 462,-317 462,-317 976,-317 976,-317 976,-317 976,-300.06 976,-300.06"/>
<polygon fill="#94a3b8" stroke="#94a3b8" points="978.45,-300.06 976,-293.06 973.55,-300.06 978.45,-300.06"/>
</g>
<!-- app&#45;&gt;gw_orders -->
<g id="edge29" class="edge">
<title>app&#45;&gt;gw_orders</title>
<path fill="none" stroke="#94a3b8" stroke-dasharray="5,2" d="M480.29,-287C480.29,-287 837.47,-287 837.47,-287"/>
<polygon fill="#94a3b8" stroke="#94a3b8" points="837.48,-289.45 844.47,-287 837.47,-284.55 837.48,-289.45"/>
</g>
</g>
</svg>
