<?xml version="1.0" encoding="UTF-8" standalone="no"?>
<!DOCTYPE svg PUBLIC "-//W3C//DTD SVG 1.1//EN"
 "http://www.w3.org/Graphics/SVG/1.1/DTD/svg11.dtd">
<!-- Generated by graphviz version 2.43.0 (0)
 -->
<!-- Title: G Pages: 1 -->
<svg width="1152pt" height="382pt"
 viewBox="0.00 0.00 1151.80 381.80" xmlns="http://www.w3.org/2000/svg" xmlns:xlink="http://www.w3.org/1999/xlink">
<g id="graph0" class="graph" transform="scale(1 1) rotate(0) translate(14.4 367.4)">
<title>G</title>
<polygon fill="white" stroke="transparent" points="-14.4,14.4 -14.4,-367.4 1137.4,-367.4 1137.4,14.4 -14.4,14.4"/>
<text text-anchor="middle" x="561.5" y="-339.4" font-family="Arial" font-size="12.00">Service Courier Platform — package dependencies</text>
<g id="clust1" class="cluster">
<title>cluster_core</title>
<path fill="none" stroke="#e2e8f0" d="M269,-8C269,-8 815,-8 815,-8 821,-8 827,-14 827,-20 827,-20 827,-69 827,-69 827,-75 821,-81 815,-81 815,-81 269,-81 269,-81 263,-81 257,-75 257,-69 257,-69 257,-20 257,-20 257,-14 263,-8 269,-8"/>
<text text-anchor="middle" x="542" y="-67.4" font-family="Arial" font-size="12.00">Core / Shared</text>
</g>
<g id="clust2" class="cluster">
<title>cluster_services</title>
<path fill="none" stroke="#dbeafe" d="M303,-89C303,-89 577,-89 577,-89 583,-89 589,-95 589,-101 589,-101 589,-150 589,-150 589,-156 583,-162 577,-162 577,-162 303,-162 303,-162 297,-162 291,-156 291,-150 291,-150 291,-101 291,-101 291,-95 297,-89 303,-89"/>
<text text-anchor="middle" x="440" y="-148.4" font-family="Arial" font-size="12.00">Services / Use cases</text>
</g>
<g id="clust3" class="cluster">
<title>cluster_inbound</title>
<path fill="none" stroke="#dcfce7" d="M20,-170C20,-170 333,-170 333,-170 339,-170 345,-176 345,-182 345,-182 345,-312 345,-312 345,-318 339,-324 333,-324 333,-324 20,-324 20,-324 14,-324 8,-318 8,-312 8,-312 8,-182 8,-182 8,-176 14,-170 20,-170"/>
<text text-anchor="middle" x="176.5" y="-310.4" font-family="Arial" font-size="12.00">Inbound adapters</text>
</g>
<g id="clust4" class="cluster">
<title>cluster_outbound</title>
<path fill="none" stroke="#fce7f3" d="M952,-251C952,-251 1103,-251 1103,-251 1109,-251 1115,-257 1115,-263 1115,-263 1115,-312 1115,-312 1115,-318 1109,-324 1103,-324 1103,-324 952,-324 952,-324 946,-324 940,-318 940,-312 940,-312 940,-263 940,-263 940,-257 946,-251 952,-251"/>
<text text-anchor="middle" x="1027.5" y="-310.4" font-family="Arial" font-size="12.00">Outbound adapters</text>
</g>
<g id="clust5" class="cluster">
<title>cluster_app</title>
<path fill="none" stroke="#fef3c7" d="M698,-170C698,-170 781,-170 781,-170 787,-170 793,-176 793,-182 793,-182 793,-231 793,-231 793,-237 787,-243 781,-243 781,-243 698,-243 698,-243 692,-243 686,-237 686,-231 686,-231 686,-182 686,-182 686,-176 692,-170 698,-170"/>
<text text-anchor="middle" x="739.5" y="-229.4" font-family="Arial" font-size="12.00">Composition root</text>
</g>
<g id="clust6" class="cluster">
<title>cluster_cmd</title>
<path fill="none" stroke="#d1fae5" d="M658,-251C658,-251 837,-251 837,-251 843,-251 849,-257 849,-263 849,-263 849,-312 849,-312 849,-318 843,-324 837,-324 837,-324 658,-324 658,-324 652,-324 646,-318 646,-312 646,-312 646,-263 646,-263 646,-257 652,-251 658,-251"/>
<text text-anchor="middle" x="747.5" y="-310.4" font-family="Arial" font-size="12.00">Entrypoints (cmd)</text>
</g>
<!-- apperr -->
<g id="node1" class="node">
<title>apperr</title>
<path fill="#f8fafc" stroke="#cbd5e1" d="M386,-52C386,-52 356,-52 356,-52 350,-52 344,-46 344,-40 344,-40 344,-28 344,-28 344,-22 350,-16 356,-16 356,-16 386,-16 386,-16 392,-16 398,-22 398,-28 398,-28 398,-40 398,-40 398,-46 392,-52 386,-52"/>
<text text-anchor="middle" x="371" y="-31.5" font-family="Arial" font-size="10.00">apperr</text>
</g>
<!-- domain -->
<g id="node2" class="node">
<title>domain</title>
<path fill="#f8fafc" stroke="#cbd5e1" d="M728,-52C728,-52 698,-52 698,-52 692,-52 686,-46 686,-40 686,-40 686,-28 686,-28 686,-22 692,-16 698,-16 698,-16 728,-16 728,-16 734,-16 740,-22 740,-28 740,-28 740,-40 740,-40 740,-46 734,-52 728,-52"/>
<text text-anchor="middle" x="713" y="-31.5" font-family="Arial" font-size="10.00">domain</text>
</g>
<!-- logx -->
<g id="node3" class="node">
<title>logx</title>
<path fill="#f8fafc" stroke="#cbd5e1" d="M307,-52C307,-52 277,-52 277,-52 271,-52 265,-46 265,-40 265,-40 265,-28 265,-28 265,-22 271,-16 277,-16 277,-16 307,-16 307,-16 313,-16 319,-22 319,-28 319,-28 319,-40 319,-40 319,-46 313,-52 307,-52"/>
<text text-anchor="middle" x="292" y="-31.5" font-family="Arial" font-size="10.00">logx</text>
</g>
<!-- metrics -->
<g id="node4" class="node">
<title>metrics</title>
<path fill="#f8fafc" stroke="#cbd5e1" d="M649,-52C649,-52 619,-52 619,-52 613,-52 607,-46 607,-40 607,-40 607,-28 607,-28 607,-22 613,-16 619,-16 619,-16 649,-16 649,-16 655,-16 661,-22 661,-28 661,-28 661,-40 661,-40 661,-46 655,-52 649,-52"/>
<text text-anchor="middle" x="634" y="-31.5" font-family="Arial" font-size="10.00">metrics</text>
</g>
<!-- config -->
<g id="node5" class="node">
<title>config</title>
<path fill="#f8fafc" stroke="#cbd5e1" d="M570,-52C570,-52 540,-52 540,-52 534,-52 528,-46 528,-40 528,-40 528,-28 528,-28 528,-22 534,-16 540,-16 540,-16 570,-16 570,-16 576,-16 582,-22 582,-28 582,-28 582,-40 582,-40 582,-46 576,-52 570,-52"/>
<text text-anchor="middle" x="555" y="-31.5" font-family="Arial" font-size="10.00">config</text>
</g>
<!-- proto -->
<g id="node6" class="node">
<title>proto</title>
<path fill="#f8fafc" stroke="#cbd5e1" d="M807,-52C807,-52 777,-52 777,-52 771,-52 765,-46 765,-40 765,-40 765,-28 765,-28 765,-22 771,-16 777,-16 777,-16 807,-16 807,-16 813,-16 819,-22 819,-28 819,-28 819,-40 819,-40 819,-46 813,-52 807,-52"/>
<text text-anchor="middle" x="792" y="-31.5" font-family="Arial" font-size="10.00">proto</text>
</g>
<!-- ports_tx -->
<g id="node7" class="node">
<title>ports_tx</title>
<path fill="#f8fafc" stroke="#cbd5e1" d="M490.5,-52C490.5,-52 435.5,-52 435.5,-52 429.5,-52 423.5,-46 423.5,-40 423.5,-40 423.5,-28 423.5,-28 423.5,-22 429.5,-16 435.5,-16 435.5,-16 490.5,-16 490.5,-16 496.5,-16 502.5,-22 502.5,-28 502.5,-28 502.5,-40 502.5,-40 502.5,-46 496.5,-52 490.5,-52"/>
<text text-anchor="middle" x="463" y="-31.5" font-family="Arial" font-size="10.00">ports/deliverytx</text>
</g>
<!-- ports_tx&#45;&gt;domain -->
<g id="edge5" class="edge">
<title>ports_tx&#45;&gt;domain</title>
<path fill="none" stroke="#64748b" d="M492.25,-52.12C492.25,-54.97 492.25,-57 492.25,-57 492.25,-57 690.33,-57 690.33,-57 690.33,-57 690.33,-56.51 690.33,-56.51"/>
<polygon fill="#64748b" stroke="#64748b" points="692.78,-59.12 690.33,-52.12 687.88,-59.12 692.78,-59.12"/>
</g>
<!-- svc_courier -->
<g id="node8" class="node">
<title>svc_courier</title>
<path fill="#eff6ff" stroke="#cbd5e1" d="M470,-133C470,-133 418,-133 418,-133 412,-133 406,-127 406,-121 406,-121 406,-109 406,-109 406,-103 412,-97 418,-97 418,-97 470,-97 470,-97 476,-97 482,-103 482,-109 482,-109 482,-121 482,-121 482,-127 476,-133 470,-133"/>
<text text-anchor="middle" x="444" y="-112.5" font-family="Arial" font-size="10.00">service/courier</text>
</g>
<!-- svc_courier&#45;&gt;apperr -->
<g id="edge3" class="edge">
<title>svc_courier&#45;&gt;apperr</title>
<path fill="none" stroke="#64748b" d="M405.69,-109C395.61,-109 387.5,-109 387.5,-109 387.5,-109 387.5,-59.16 387.5,-59.16"/>
<polygon fill="#64748b" stroke="#64748b" points="389.95,-59.16 387.5,-52.16 385.05,-59.16 389.95,-59.16"/>
</g>
<!-- svc_courier&#45;&gt;domain -->
<g id="edge4" class="edge">
<title>svc_courier&#45;&gt;domain</title>
<path fill="none" stroke="#64748b" d="M452.75,-96.68C452.75,-88.21 452.75,-80 452.75,-80 452.75,-80 699,-80 699,-80 699,-80 699,-59.18 699,-59.18"/>
<polygon fill="#64748b" stroke="#64748b" points="701.45,-59.18 699,-52.18 696.55,-59.18 701.45,-59.18"/>
</g>
<!-- svc_delivery -->
<g id="node9" class="node">
<title>svc_delivery</title>
<path fill="#eff6ff" stroke="#cbd5e1" d="M368.5,-133C368.5,-133 311.5,-133 311.5,-133 305.5,-133 299.5,-127 299.5,-121 299.5,-121 299.5,-109 299.5,-109 299.5,-103 305.5,-97 311.5,-97 311.5,-97 368.5,-97 368.5,-97 374.5,-97 380.5,-103 380.5,-109 380.5,-109 380.5,-121 380.5,-121 380.5,-127 374.5,-133 368.5,-133"/>
<text text-anchor="middle" x="340" y="-112.5" font-family="Arial" font-size="10.00">service/delivery</text>
</g>
<!-- svc_delivery&#45;&gt;apperr -->
<g id="edge6" class="edge">
<title>svc_delivery&#45;&gt;apperr</title>
<path fill="none" stroke="#64748b" d="M356.17,-96.62C356.17,-96.62 356.17,-59.03 356.17,-59.03"/>
<polygon fill="#64748b" stroke="#64748b" points="358.62,-59.03 356.17,-52.03 353.72,-59.03 358.62,-59.03"/>
</g>
<!-- svc_delivery&#45;&gt;domain -->
<g id="edge7" class="edge">
<title>svc_delivery&#45;&gt;domain</title>
<path fill="none" stroke="#64748b" d="M368.33,-96.9C368.33,-85.91 368.33,-74 368.33,-74 368.33,-74 694.67,-74 694.67,-74 694.67,-74 694.67,-59.13 694.67,-59.13"/>
<polygon fill="#64748b" stroke="#64748b" points="697.12,-59.13 694.67,-52.13 692.22,-59.13 697.12,-59.13"/>
</g>
<!-- svc_delivery&#45;&gt;logx -->
<g id="edge8" class="edge">
<title>svc_delivery&#45;&gt;logx</title>
<path fill="none" stroke="#64748b" d="M304.38,-96.62C304.38,-96.62 304.38,-59.03 304.38,-59.03"/>
<polygon fill="#64748b" stroke="#64748b" points="306.83,-59.03 304.38,-52.03 301.93,-59.03 306.83,-59.03"/>
</g>
<!-- svc_delivery&#45;&gt;ports_tx -->
<g id="edge9" class="edge">
<title>svc_delivery&#45;&gt;ports_tx</title>
<path fill="none" stroke="#64748b" d="M380.66,-121C392.35,-121 402,-121 402,-121 402,-121 402,-34 402,-34 402,-34 416.33,-34 416.33,-34"/>
<polygon fill="#64748b" stroke="#64748b" points="416.33,-36.45 423.33,-34 416.33,-31.55 416.33,-36.45"/>
</g>
<!-- svc_orders -->
<g id="node10" class="node">
<title>svc_orders</title>
<path fill="#eff6ff" stroke="#cbd5e1" d="M569,-133C569,-133 519,-133 519,-133 513,-133 507,-127 507,-121 507,-121 507,-109 507,-109 507,-103 513,-97 519,-97 519,-97 569,-97 569,-97 575,-97 581,-103 581,-109 581,-109 581,-121 581,-121 581,-127 575,-133 569,-133"/>
<text text-anchor="middle" x="544" y="-112.5" font-family="Arial" font-size="10.00">service/orders</text>
</g>
<!-- svc_orders&#45;&gt;apperr -->
<g id="edge23" class="edge">
<title>svc_orders&#45;&gt;apperr</title>
<path fill="none" stroke="#64748b" d="M517.5,-96.96C517.5,-83.71 517.5,-68 517.5,-68 517.5,-68 391,-68 391,-68 391,-68 391,-59.19 391,-59.19"/>
<polygon fill="#64748b" stroke="#64748b" points="393.45,-59.19 391,-52.19 388.55,-59.19 393.45,-59.19"/>
</g>
<!-- svc_orders&#45;&gt;domain -->
<g id="edge24" class="edge">
<title>svc_orders&#45;&gt;domain</title>
<path fill="none" stroke="#64748b" d="M581.36,-109C628.45,-109 703.33,-109 703.33,-109 703.33,-109 703.33,-59.16 703.33,-59.16"/>
<polygon fill="#64748b" stroke="#64748b" points="705.78,-59.16 703.33,-52.16 700.88,-59.16 705.78,-59.16"/>
</g>
<!-- svc_orders&#45;&gt;ports_tx -->
<g id="edge25" class="edge">
<title>svc_orders&#45;&gt;ports_tx</title>
<path fill="none" stroke="#64748b" d="M506.81,-115C501.27,-115 497.38,-115 497.38,-115 497.38,-115 497.38,-59.38 497.38,-59.38"/>
<polygon fill="#64748b" stroke="#64748b" points="499.83,-59.38 497.38,-52.38 494.93,-59.38 499.83,-59.38"/>
</g>
<!-- http_handlers -->
<g id="node11" class="node">
<title>http_handlers</title>
<path fill="#f0fdf4" stroke="#cbd5e1" d="M324.5,-214C324.5,-214 279.5,-214 279.5,-214 273.5,-214 267.5,-208 267.5,-202 267.5,-202 267.5,-190 267.5,-190 267.5,-184 273.5,-178 279.5,-178 279.5,-178 324.5,-178 324.5,-178 330.5,-178 336.5,-184 336.5,-190 336.5,-190 336.5,-202 336.5,-202 336.5,-208 330.5,-214 324.5,-214"/>
<text text-anchor="middle" x="302" y="-193.5" font-family="Arial" font-size="10.00">http/handlers</text>
</g>
<!-- http_handlers&#45;&gt;apperr -->
<g id="edge10" class="edge">
<title>http_handlers&#45;&gt;apperr</title>
<path fill="none" stroke="#64748b" d="M336.78,-181C359.12,-181 384,-181 384,-181 384,-181 384,-59.03 384,-59.03"/>
<polygon fill="#64748b" stroke="#64748b" points="386.45,-59.03 384,-52.03 381.55,-59.03 386.45,-59.03"/>
</g>
<!-- http_handlers&#45;&gt;domain -->
<g id="edge11" class="edge">
<title>http_handlers&#45;&gt;domain</title>
<path fill="none" stroke="#64748b" d="M336.59,-203C434.69,-203 707.67,-203 707.67,-203 707.67,-203 707.67,-59.09 707.67,-59.09"/>
<polygon fill="#64748b" stroke="#64748b" points="710.12,-59.09 707.67,-52.09 705.22,-59.09 710.12,-59.09"/>
</g>
<!-- http_handlers&#45;&gt;logx -->
<g id="edge12" class="edge">
<title>http_handlers&#45;&gt;logx</title>
<path fill="none" stroke="#64748b" d="M283.5,-177.73C283.5,-177.73 283.5,-59.45 283.5,-59.45"/>
<polygon fill="#64748b" stroke="#64748b" points="285.95,-59.45 283.5,-52.45 281.05,-59.45 285.95,-59.45"/>
</g>
<!-- http_handlers&#45;&gt;svc_courier -->
<g id="edge13" class="edge">
<title>http_handlers&#45;&gt;svc_courier</title>
<path fill="none" stroke="#64748b" d="M336.66,-185C374.97,-185 431.33,-185 431.33,-185 431.33,-185 431.33,-140.03 431.33,-140.03"/>
<polygon fill="#64748b" stroke="#64748b" points="433.78,-140.03 431.33,-133.03 428.88,-140.03 433.78,-140.03"/>
</g>
<!-- http_handlers&#45;&gt;svc_delivery -->
<g id="edge14" class="edge">
<title>http_handlers&#45;&gt;svc_delivery</title>
<path fill="none" stroke="#64748b" d="M318,-177.62C318,-177.62 318,-140.03 318,-140.03"/>
<polygon fill="#64748b" stroke="#64748b" points="320.45,-140.03 318,-133.03 315.55,-140.03 320.45,-140.03"/>
</g>
<!-- http_mw -->
<g id="node12" class="node">
<title>http_mw</title>
<path fill="#f0fdf4" stroke="#cbd5e1" d="M86,-214C86,-214 28,-214 28,-214 22,-214 16,-208 16,-202 16,-202 16,-190 16,-190 16,-184 22,-178 28,-178 28,-178 86,-178 86,-178 92,-178 98,-184 98,-190 98,-190 98,-202 98,-202 98,-208 92,-214 86,-214"/>
<text text-anchor="middle" x="57" y="-193.5" font-family="Arial" font-size="10.00">http/middleware</text>
</g>
<!-- http_mw&#45;&gt;logx -->
<g id="edge16" class="edge">
<title>http_mw&#45;&gt;logx</title>
<path fill="none" stroke="#64748b" d="M57,-177.7C57,-133.59 57,-25 57,-25 57,-25 257.58,-25 257.58,-25"/>
<polygon fill="#64748b" stroke="#64748b" points="257.58,-27.45 264.58,-25 257.58,-22.55 257.58,-27.45"/>
</g>
<!-- http_mw_rl -->
<g id="node13" class="node">
<title>http_mw_rl</title>
<path fill="#f0fdf4" stroke="#cbd5e1" d="M230.5,-214C230.5,-214 135.5,-214 135.5,-214 129.5,-214 123.5,-208 123.5,-202 123.5,-202 123.5,-190 123.5,-190 123.5,-184 129.5,-178 135.5,-178 135.5,-178 230.5,-178 230.5,-178 236.5,-178 242.5,-184 242.5,-190 242.5,-190 242.5,-202 242.5,-202 242.5,-208 236.5,-214 230.5,-214"/>
<text text-anchor="middle" x="183" y="-193.5" font-family="Arial" font-size="10.00">http/middleware/ratelimit</text>
</g>
<!-- http_mw_rl&#45;&gt;logx -->
<g id="edge15" class="edge">
<title>http_mw_rl&#45;&gt;logx</title>
<path fill="none" stroke="#64748b" d="M183,-177.73C183,-135.36 183,-34 183,-34 183,-34 257.78,-34 257.78,-34"/>
<polygon fill="#64748b" stroke="#64748b" points="257.78,-36.45 264.78,-34 257.78,-31.55 257.78,-36.45"/>
</g>
<!-- http_router -->
<g id="node14" class="node">
<title>http_router</title>
<path fill="#f0fdf4" stroke="#cbd5e1" d="M115.5,-295C115.5,-295 82.5,-295 82.5,-295 76.5,-295 70.5,-289 70.5,-283 70.5,-283 70.5,-271 70.5,-271 70.5,-265 76.5,-259 82.5,-259 82.5,-259 115.5,-259 115.5,-259 121.5,-259 127.5,-265 127.5,-271 127.5,-271 127.5,-283 127.5,-283 127.5,-289 121.5,-295 115.5,-295"/>
<text text-anchor="middle" x="99" y="-274.5" font-family="Arial" font-size="10.00">http/router</text>
</g>
<!-- http_router&#45;&gt;http_handlers -->
<g id="edge17" class="edge">
<title>http_router&#45;&gt;http_handlers</title>
<path fill="none" stroke="#64748b" d="M110.75,-258.97C110.75,-242.6 110.75,-221 110.75,-221 110.75,-221 302,-221 302,-221 302,-221 302,-220.32 302,-220.32"/>
<polygon fill="#64748b" stroke="#64748b" points="304.45,-221.17 302,-214.17 299.55,-221.17 304.45,-221.17"/>
</g>
<!-- http_router&#45;&gt;http_mw -->
<g id="edge18" class="edge">
<title>http_router&#45;&gt;http_mw</title>
<path fill="none" stroke="#64748b" d="M84.25,-258.62C84.25,-258.62 84.25,-221.03 84.25,-221.03"/>
<polygon fill="#64748b" stroke="#64748b" points="86.7,-221.03 84.25,-214.03 81.8,-221.03 86.7,-221.03"/>
</g>
<!-- http_router&#45;&gt;http_mw_rl -->
<g id="edge19" class="edge">
<title>http_router&#45;&gt;http_mw_rl</title>
<path fill="none" stroke="#64748b" d="M117.12,-258.62C117.12,-234.72 117.12,-196 117.12,-196 117.12,-196 117.73,-196 117.73,-196"/>
<polygon fill="#64748b" stroke="#64748b" points="116.2,-198.45 123.2,-196 116.2,-193.55 116.2,-198.45"/>
</g>
<!-- http_pprof -->
<g id="node15" class="node">
<title>http_pprof</title>
<path fill="#f0fdf4" stroke="#cbd5e1" d="M221.5,-295C221.5,-295 164.5,-295 164.5,-295 158.5,-295 152.5,-289 152.5,-283 152.5,-283 152.5,-271 152.5,-271 152.5,-265 158.5,-259 164.5,-259 164.5,-259 221.5,-259 221.5,-259 227.5,-259 233.5,-265 233.5,-271 233.5,-271 233.5,-283 233.5,-283 233.5,-289 227.5,-295 221.5,-295"/>
<text text-anchor="middle" x="193" y="-274.5" font-family="Arial" font-size="10.00">http/pprofserver</text>
</g>
<!-- kafka_transport -->
<g id="node16" class="node">
<title>kafka_transport</title>
<path fill="#f0fdf4" stroke="#cbd5e1" d="M325,-295C325,-295 271,-295 271,-295 265,-295 259,-289 259,-283 259,-283 259,-271 259,-271 259,-265 265,-259 271,-259 271,-259 325,-259 325,-259 331,-259 337,-265 337,-271 337,-271 337,-283 337,-283 337,-289 331,-295 325,-295"/>
<text text-anchor="middle" x="298" y="-274.5" font-family="Arial" font-size="10.00">transport/kafka</text>
</g>
<!-- kafka_transport&#45;&gt;logx -->
<g id="edge26" class="edge">
<title>kafka_transport&#45;&gt;logx</title>
<path fill="none" stroke="#64748b" d="M258.98,-277C254.08,-277 250.75,-277 250.75,-277 250.75,-277 250.75,-43 250.75,-43 250.75,-43 257.72,-43 257.72,-43"/>
<polygon fill="#64748b" stroke="#64748b" points="257.72,-45.45 264.72,-43 257.72,-40.55 257.72,-45.45"/>
</g>
<!-- kafka_transport&#45;&gt;svc_orders -->
<g id="edge27" class="edge">
<title>kafka_transport&#45;&gt;svc_orders</title>
<path fill="none" stroke="#64748b" d="M337.25,-271C406.7,-271 544,-271 544,-271 544,-271 544,-140.2 544,-140.2"/>
<polygon fill="#64748b" stroke="#64748b" points="546.45,-140.2 544,-133.2 541.55,-140.2 546.45,-140.2"/>
</g>
<!-- repo -->
<g id="node17" class="node">
<title>repo</title>
<path fill="#fdf2f8" stroke="#cbd5e1" d="M991.5,-295C991.5,-295 960.5,-295 960.5,-295 954.5,-295 948.5,-289 948.5,-283 948.5,-283 948.5,-271 948.5,-271 948.5,-265 954.5,-259 960.5,-259 960.5,-259 991.5,-259 991.5,-259 997.5,-259 1003.5,-265 1003.5,-271 1003.5,-271 1003.5,-283 1003.5,-283 1003.5,-289 997.5,-295 991.5,-295"/>
<text text-anchor="middle" x="976" y="-274.5" font-family="Arial" font-size="10.00">repository</text>
</g>
<!-- repo&#45;&gt;apperr -->
<g id="edge20" class="edge">
<title>repo&#45;&gt;apperr</title>
<path fill="none" stroke="#64748b" d="M992.5,-258.75C992.5,-207 992.5,-63 992.5,-63 992.5,-63 394.5,-63 394.5,-63 394.5,-63 394.5,-59.2 394.5,-59.2"/>
<polygon fill="#64748b" stroke="#64748b" points="396.95,-59.2 394.5,-52.2 392.05,-59.2 396.95,-59.2"/>
</g>
<!-- repo&#45;&gt;domain -->
<g id="edge21" class="edge">
<title>repo&#45;&gt;domain</title>
<path fill="none" stroke="#64748b" d="M981.5,-259C981.5,-225.06 981.5,-155 981.5,-155 981.5,-155 733,-155 733,-155 733,-155 733,-59.11 733,-59.11"/>
<polygon fill="#64748b" stroke="#64748b" points="735.45,-59.11 733,-52.11 730.55,-59.11 735.45,-59.11"/>
</g>
<!-- repo&#45;&gt;ports_tx -->
<g id="edge22" class="edge">
<title>repo&#45;&gt;ports_tx</title>
<path fill="none" stroke="#64748b" d="M959.5,-258.94C959.5,-254.51 959.5,-251 959.5,-251 959.5,-251 487.12,-251 487.12,-251 487.12,-251 487.12,-59.13 487.12,-59.13"/>
<polygon fill="#64748b" stroke="#64748b" points="489.58,-59.13 487.12,-52.13 484.68,-59.13 489.58,-59.13"/>
</g>
<!-- gw_orders -->
<g id="node18" class="node">
<title>gw_orders</title>
<path fill="#fdf2f8" stroke="#cbd5e1" d="M1095.5,-295C1095.5,-295 1040.5,-295 1040.5,-295 1034.5,-295 1028.5,-289 1028.5,-283 1028.5,-283 1028.5,-271 1028.5,-271 1028.5,-265 1034.5,-259 1040.5,-259 1040.5,-259 1095.5,-259 1095.5,-259 1101.5,-259 1107.5,-265 1107.5,-271 1107.5,-271 1107.5,-283 1107.5,-283 1107.5,-289 1101.5,-295 1095.5,-295"/>
<text text-anchor="middle" x="1068" y="-274.5" font-family="Arial" font-size="10.00">gateway/orders</text>
</g>
<!-- gw_orders&#45;&gt;logx -->
<g id="edge1" class="edge">
<title>gw_orders&#45;&gt;logx</title>
<path fill="none" stroke="#64748b" d="M1068,-258.94C1068,-211.14 1068,-85 1068,-85 1068,-85 314.12,-85 314.12,-85 314.12,-85 314.12,-59.12 314.12,-59.12"/>
<polygon fill="#64748b" stroke="#64748b" points="316.58,-59.12 314.12,-52.12 311.68,-59.12 316.58,-59.12"/>
</g>
<!-- gw_orders&#45;&gt;proto -->
<g id="edge2" class="edge">
<title>gw_orders&#45;&gt;proto</title>
<path fill="none" stroke="#64748b" d="M1087.75,-258.74C1087.75,-202.22 1087.75,-34 1087.75,-34 1087.75,-34 826.03,-34 826.03,-34"/>
<polygon fill="#64748b" stroke="#64748b" points="826.03,-31.55 819.03,-34 826.03,-36.45 826.03,-31.55"/>
</g>
<!-- app -->
<g id="node19" class="node">
<title>app</title>
<path fill="#fffbeb" stroke="#cbd5e1" d="M754,-214C754,-214 724,-214 724,-214 718,-214 712,-208 712,-202 712,-202 712,-190 712,-190 712,-184 718,-178 724,-178 724,-178 754,-178 754,-178 760,-178 766,-184 766,-190 766,-190 766,-202 766,-202 766,-208 760,-214 754,-214"/>
<text text-anchor="middle" x="739" y="-193.5" font-family="Arial" font-size="10.00">app</text>
</g>
<!-- app&#45;&gt;logx -->
<g id="edge36" class="edge">
<title>app&#45;&gt;logx</title>
<path fill="none" stroke="#94a3b8" stroke-dasharray="5,2" d="M726,-177.71C726,-147.63 726,-91 726,-91 726,-91 309.25,-91 309.25,-91 309.25,-91 309.25,-59.04 309.25,-59.04"/>
<polygon fill="#94a3b8" stroke="#94a3b8" points="311.7,-59.04 309.25,-52.04 306.8,-59.04 311.7,-59.04"/>
</g>
<!-- app&#45;&gt;metrics -->
<g id="edge37" class="edge">
<title>app&#45;&gt;metrics</title>
<path fill="none" stroke="#94a3b8" stroke-dasharray="5,2" d="M711.86,-188C688.15,-188 657.5,-188 657.5,-188 657.5,-188 657.5,-59.27 657.5,-59.27"/>
<polygon fill="#94a3b8" stroke="#94a3b8" points="659.95,-59.27 657.5,-52.27 655.05,-59.27 659.95,-59.27"/>
</g>
<!-- app&#45;&gt;config -->
<g id="edge30" class="edge">
<title>app&#45;&gt;config</title>
<path fill="none" stroke="#94a3b8" stroke-dasharray="5,2" d="M711.82,-192C669.96,-192 594.5,-192 594.5,-192 594.5,-192 594.5,-34 594.5,-34 594.5,-34 589,-34 589,-34"/>
<polygon fill="#94a3b8" stroke="#94a3b8" points="589,-31.55 582,-34 589,-36.45 589,-31.55"/>
</g>
<!-- app&#45;&gt;proto -->
<g id="edge38" class="edge">
<title>app&#45;&gt;proto</title>
<path fill="none" stroke="#94a3b8" stroke-dasharray="5,2" d="M752.5,-177.73C752.5,-135.36 752.5,-34 752.5,-34 752.5,-34 758,-34 758,-34"/>
<polygon fill="#94a3b8" stroke="#94a3b8" points="758,-36.45 765,-34 758,-31.55 758,-36.45"/>
</g>
<!-- app&#45;&gt;svc_courier -->
<g id="edge40" class="edge">
<title>app&#45;&gt;svc_courier</title>
<path fill="none" stroke="#94a3b8" stroke-dasharray="5,2" d="M711.93,-196C641.26,-196 456.67,-196 456.67,-196 456.67,-196 456.67,-140.38 456.67,-140.38"/>
<polygon fill="#94a3b8" stroke="#94a3b8" points="459.12,-140.38 456.67,-133.38 454.22,-140.38 459.12,-140.38"/>
</g>
<!-- app&#45;&gt;svc_delivery -->
<g id="edge41" class="edge">
<title>app&#45;&gt;svc_delivery</title>
<path fill="none" stroke="#94a3b8" stroke-dasharray="5,2" d="M711.96,-199C625.09,-199 358.75,-199 358.75,-199 358.75,-199 358.75,-140.23 358.75,-140.23"/>
<polygon fill="#94a3b8" stroke="#94a3b8" points="361.2,-140.23 358.75,-133.23 356.3,-140.23 361.2,-140.23"/>
</g>
<!-- app&#45;&gt;svc_orders -->
<g id="edge42" class="edge">
<title>app&#45;&gt;svc_orders</title>
<path fill="none" stroke="#94a3b8" stroke-dasharray="5,2" d="M719,-177.84C719,-155.65 719,-121 719,-121 719,-121 588.11,-121 588.11,-121"/>
<polygon fill="#94a3b8" stroke="#94a3b8" points="588.11,-118.55 581.11,-121 588.11,-123.45 588.11,-118.55"/>
</g>
<!-- app&#45;&gt;http_handlers -->
<g id="edge32" class="edge">
<title>app&#45;&gt;http_handlers</title>
<path fill="none" stroke="#94a3b8" stroke-dasharray="5,2" d="M711.99,-206C711.99,-206 343.79,-206 343.79,-206"/>
<polygon fill="#94a3b8" stroke="#94a3b8" points="343.79,-203.55 336.79,-206 343.79,-208.45 343.79,-203.55"/>
</g>
<!-- app&#45;&gt;http_mw_rl -->
<g id="edge33" class="edge">
<title>app&#45;&gt;http_mw_rl</title>
<path fill="none" stroke="#94a3b8" stroke-dasharray="5,2" d="M728,-214.04C728,-221.75 728,-229 728,-229 728,-229 238,-229 238,-229 238,-229 238,-221.04 238,-221.04"/>
<polygon fill="#94a3b8" stroke="#94a3b8" points="240.45,-221.04 238,-214.04 235.55,-221.04 240.45,-221.04"/>
</g>
<!-- app&#45;&gt;http_router -->
<g id="edge35" class="edge">
<title>app&#45;&gt;http_router</title>
<path fill="none" stroke="#94a3b8" stroke-dasharray="5,2" d="M733,-214.13C733,-224.71 733,-236 733,-236 733,-236 104.38,-236 104.38,-236 104.38,-236 104.38,-251.9 104.38,-251.9"/>
<polygon fill="#94a3b8" stroke="#94a3b8" points="101.93,-251.9 104.38,-258.9 106.83,-251.9 101.93,-251.9"/>
</g>
<!-- app&#45;&gt;http_pprof -->
<g id="edge34" class="edge">
<title>app&#45;&gt;http_pprof</title>
<path fill="none" stroke="#94a3b8" stroke-dasharray="5,2" d="M738,-214.15C738,-227.74 738,-244 738,-244 738,-244 193,-244 193,-244 193,-244 193,-251.96 193,-251.96"/>
<polygon fill="#94a3b8" stroke="#94a3b8" points="190.55,-251.96 193,-258.96 195.45,-251.96 190.55,-251.96"/>
</g>
<!-- app&#45;&gt;kafka_transport -->
<g id="edge43" class="edge">
<title>app&#45;&gt;kafka_transport</title>
<path fill="none" stroke="#94a3b8" stroke-dasharray="5,2" d="M711.9,-210C679.76,-210 630.5,-210 630.5,-210 630.5,-210 630.5,-283 630.5,-283 630.5,-283 344.12,-283 344.12,-283"/>
<polygon fill="#94a3b8" stroke="#94a3b8" points="344.12,-280.55 337.12,-283 344.12,-285.45 344.12,-280.55"/>
</g>
<!-- app&#45;&gt;repo -->
<g id="edge39" class="edge">
<title>app&#45;&gt;repo</title>
<path fill="none" stroke="#94a3b8" stroke-dasharray="5,2" d="M766.01,-202C827.08,-202 970.5,-202 970.5,-202 970.5,-202 970.5,-251.84 970.5,-251.84"/>
<polygon fill="#94a3b8" stroke="#94a3b8" points="968.05,-251.84 970.5,-258.84 972.95,-251.84 968.05,-251.84"/>
</g>
<!-- app&#45;&gt;gw_orders -->
<g id="edge31" class="edge">
<title>app&#45;&gt;gw_orders</title>
<path fill="none" stroke="#94a3b8" stroke-dasharray="5,2" d="M766.17,-190C841.64,-190 1048.25,-190 1048.25,-190 1048.25,-190 1048.25,-251.97 1048.25,-251.97"/>
<polygon fill="#94a3b8" stroke="#94a3b8" points="1045.8,-251.97 1048.25,-258.97 1050.7,-251.97 1045.8,-251.97"/>
</g>
<!-- cmd_api -->
<g id="node20" class="node">
<title>cmd_api</title>
<path fill="#ecfdf5" stroke="#cbd5e1" d="M829,-295C829,-295 755,-295 755,-295 749,-295 743,-289 743,-283 743,-283 743,-271 743,-271 743,-265 749,-259 755,-259 755,-259 829,-259 829,-259 835,-259 841,-265 841,-271 841,-271 841,-283 841,-283 841,-289 835,-295 829,-295"/>
<text text-anchor="middle" x="792" y="-274.5" font-family="Arial" font-size="10.00">cmd/service&#45;courier</text>
</g>
<!-- cmd_api&#45;&gt;app -->
<g id="edge28" class="edge">
<title>cmd_api&#45;&gt;app</title>
<path fill="none" stroke="#0f766e" stroke-width="1.2" d="M754.5,-258.62C754.5,-258.62 754.5,-221.03 754.5,-221.03"/>
<polygon fill="#0f766e" stroke="#0f766e" stroke-width="1.2" points="756.95,-221.03 754.5,-214.03 752.05,-221.03 756.95,-221.03"/>
</g>
<!-- cmd_worker -->
<g id="node21" class="node">
<title>cmd_worker</title>
<path fill="#ecfdf5" stroke="#cbd5e1" d="M706,-295C706,-295 666,-295 666,-295 660,-295 654,-289 654,-283 654,-283 654,-271 654,-271 654,-265 660,-259 666,-259 666,-259 706,-259 706,-259 712,-259 718,-265 718,-271 718,-271 718,-283 718,-283 718,-289 712,-295 706,-295"/>
<text text-anchor="middle" x="686" y="-274.5" font-family="Arial" font-size="10.00">cmd/worker</text>
</g>
<!-- cmd_worker&#45;&gt;app -->
<g id="edge29" class="edge">
<title>cmd_worker&#45;&gt;app</title>
<path fill="none" stroke="#0f766e" stroke-width="1.2" d="M718.16,-277C721.1,-277 723,-277 723,-277 723,-277 723,-221.38 723,-221.38"/>
<polygon fill="#0f766e" stroke="#0f766e" stroke-width="1.2" points="725.45,-221.38 723,-214.38 720.55,-221.38 725.45,-221.38"/>
</g>
</g>
</svg>
